#!OML:ASF X:\für Bonn\!DataBase\2005_08_11_Bastian_Final\c3d\Bastian.ASF
:FULLY-SPECIFIED
:DEGREES
232
root 22.4479 16.54 -2.08801 360.194 -68.0063 33.1813
lowerback 73.1572 -6.10518 12.9774
upperback 14.3045 -0.0400644 -0.684436
thorax -4.10756 -0.0346793 -5.76276
lowerneck -4.82768 -8.48953 1.47688
upperneck -25.5019 -10.5497 10.2075
head -6.51677 -6.70209 3.52504
rclavicle 6.67916e-014 -8.26944e-014
rhumerus 65.0568 -20.9245 -66.6496
rradius 14.107
rwrist 13.7255
rhand -47.1458 -1.52689
rfingers 7.12502
rthumb -19.8475 -30.5335
lclavicle 6.67916e-014 -8.26944e-014
lhumerus -10.0446 -28.6629 85.4922
lradius 50.3426
lwrist 32.657
lhand -12.9491 -15.924
lfingers 7.12502
lthumb 13.1423 13.6418
rfemur -67.8075 -9.98304 13.8376
rtibia 62.9056
rfoot -17.3938 -8.78707
rtoes 0.948146
lfemur -62.2126 -9.39103 -30.4638
ltibia 41.8506
lfoot -1.75962 -7.35052
ltoes -15.9851
233
root 22.4491 16.5441 -2.08417 359.951 -67.8998 33.3512
lowerback 72.9522 -6.13954 12.9472
upperback 14.4887 -0.153523 -0.696125
thorax -3.9262 -0.0667057 -5.72748
lowerneck -5.03263 -8.47995 1.29943
upperneck -25.5392 -10.5284 10.3298
head -6.47572 -6.68959 3.58082
rclavicle -8.26944e-014 -9.54166e-015
rhumerus 65.143 -20.4915 -66.3735
rradius 14.2083
rwrist 13.5359
rhand -47.5443 -1.01416
rfingers 7.12502
rthumb -20.2305 -29.9807
lclavicle -8.26944e-014 -9.54166e-015
lhumerus -9.85992 -28.5434 85.4535
lradius 50.2781
lwrist 32.512
lhand -13.0279 -15.9132
lfingers 7.12502
lthumb 13.0663 13.6575
rfemur -67.6865 -10.1309 13.7547
rtibia 62.8879
rfoot -17.3881 -8.76231
rtoes 0.785629
lfemur -62.0011 -9.43624 -30.6081
ltibia 41.7005
lfoot -1.6789 -7.41495
ltoes -15.5409
234
root 22.45 16.5469 -2.08065 359.769 -67.7762 33.4627
lowerback 72.7605 -6.20572 12.9505
upperback 14.6488 -0.27211 -0.725078
thorax -3.76865 -0.0993755 -5.72189
lowerneck -5.22466 -8.46312 1.1302
upperneck -25.5492 -10.4897 10.4722
head -6.42787 -6.6684 3.64031
rclavicle 1.145e-013 -2.06736e-014
rhumerus 65.1997 -20.0204 -66.038
rradius 14.2949
rwrist 13.2843
rhand -47.9552 -0.527179
rfingers 7.12502
rthumb -20.6254 -29.4513
lclavicle 1.145e-013 -2.06736e-014
lhumerus -9.70801 -28.4599 85.4046
lradius 50.2117
lwrist 32.3408
lhand -13.1433 -15.8888
lfingers 7.12502
lthumb 12.9551 13.689
rfemur -67.5725 -10.2854 13.6841
rtibia 62.8853
rfoot -17.4237 -8.72375
rtoes 0.816356
lfemur -61.807 -9.45925 -30.7723
ltibia 41.5509
lfoot -1.59321 -7.52838
ltoes -15.4542
235
root 22.451 16.5508 -2.07765 359.423 -67.668 33.7202
lowerback 72.6203 -6.24805 12.9224
upperback 14.7906 -0.377603 -0.756923
thorax -3.63007 -0.128358 -5.71166
lowerneck -5.3731 -8.4735 0.956709
upperneck -25.5827 -10.4848 10.6206
head -6.39287 -6.66533 3.70702
rclavicle -2.8625e-014 4.92986e-014
rhumerus 65.0934 -19.4746 -65.3828
rradius 14.4863
rwrist 12.8204
rhand -48.3256 -0.3145
rfingers 7.12502
rthumb -20.9812 -29.1997
lclavicle -2.8625e-014 4.92986e-014
lhumerus -9.55319 -28.4153 85.371
lradius 50.126
lwrist 32.2079
lhand -13.2198 -15.9078
lfingers 7.12502
lthumb 12.8813 13.6747
rfemur -67.4223 -10.4068 13.5363
rtibia 62.8884
rfoot -17.4512 -8.70275
rtoes 0.803917
lfemur -61.5758 -9.46901 -30.9919
ltibia 41.4081
lfoot -1.54043 -7.63283
ltoes -15.3271
